<svg width="56" height="30" viewBox="0 0 56 30" fill="none" xmlns="http://www.w3.org/2000/svg">
<path fill-rule="evenodd" clip-rule="evenodd" d="M14.1996 17.5577V26.6976C14.1996 28.1399 13.0304 29.3091 11.5881 29.3091H8.59736C7.77457 29.3091 6.99991 28.9213 6.50683 28.2626L0.520882 20.2665C0.182746 19.8148 0 19.2657 0 18.7015V17.5577C0 16.1155 1.16917 14.9463 2.61141 14.9463H11.5881C11.5926 14.9463 11.5971 14.9463 11.6016 14.9463H14.1995V17.5522C14.1996 17.554 14.1996 17.5559 14.1996 17.5577Z" fill="#F9FF38"/>
<path d="M7.07738 5.86029L23.9153 27.5378C24.41 28.1747 25.1712 28.5473 25.9776 28.5473H28.8885C30.3308 28.5473 31.4999 27.3782 31.4999 25.9359V15.5682C31.4999 14.9887 31.3072 14.4257 30.952 13.9678L21.5664 1.86644C21.0717 1.22867 20.31 0.855469 19.5029 0.855469H9.13973C7.69749 0.855469 6.52832 2.02464 6.52832 3.46688V4.25836C6.52832 4.8385 6.7215 5.40212 7.07738 5.86029Z" fill="#F9FF38"/>
<path d="M31.1191 13.8795V4.16904C31.1191 3.39489 31.366 2.64091 31.8238 2.01663C32.5094 1.08167 33.5995 0.529297 34.7589 0.529297H36.0802C37.2389 0.529297 38.3306 1.07215 39.0299 1.99601L54.9602 23.0415C55.4467 23.6842 55.7099 24.4682 55.7099 25.2743V25.3901C55.7099 26.2659 55.3801 27.1096 54.786 27.7531C54.1265 28.4676 53.1984 28.874 52.226 28.874H43.7381C42.6061 28.874 41.5363 28.3557 40.8347 27.4672L31.9153 16.1722C31.3996 15.5193 31.1191 14.7115 31.1191 13.8795Z" fill="#F9FF38"/>
</svg>
